<svg width="299" height="82" viewBox="0 0 299 82" fill="none" xmlns="http://www.w3.org/2000/svg">
<g clip-path="url(#clip0_233_511)">
<path d="M43.6292 20.3746H75.2503L87.0582 0.90332H29.5197C20.4137 0.90332 16.1108 5.52021 14.4096 13.4492L0 80.896H25.7172L32.1215 50.6855H56.738L68.5459 31.2142H36.3243L37.6252 25.2926C38.3256 21.9804 40.2269 20.3746 43.6292 20.3746Z" fill="white"/>
<path d="M89.5595 9.73562C93.7623 2.91065 97.5648 0 109.873 0C118.579 0 125.383 0.70257 127.185 9.73562L141.694 80.896H116.077L112.975 64.4357H84.7562L75.0497 80.896H46.2305L89.5595 9.73562ZM94.1625 46.1689H110.473L107.371 25.8947C107.271 25.2925 107.071 24.1885 106.671 24.1885C106.371 24.1885 105.67 25.1922 105.27 25.8947L94.1625 46.1689Z" fill="white"/>
<path d="M294.897 20.3746H255.471C252.068 20.3746 250.067 21.9804 249.467 25.3929L248.166 31.3146H291.695L287.892 48.8788H244.363L242.762 56.4064C242.662 57.109 242.562 57.7112 242.562 58.213C242.562 60.4211 243.963 61.4247 246.665 61.4247H286.592L282.489 80.896H224.35C217.645 80.896 214.243 76.7809 214.243 71.3611C214.243 70.3574 214.343 69.2534 214.543 68.2497L226.151 13.4492C227.852 5.41984 232.155 0.90332 241.261 0.90332H298.9L294.897 20.3746Z" fill="white"/>
<path d="M159.607 0.90332H133.089L139.893 36.0318H164.21L159.607 0.90332Z" fill="white"/>
<path d="M200.034 0.90332L189.427 19.9731L178.019 40.5484L169.814 55.3023C169.113 56.6071 168.413 57.0086 167.912 57.0086C167.312 57.0086 167.012 56.5067 166.912 55.3023L165.411 43.8605H141.595L146.498 69.0527C147.899 76.0784 151.301 82 163.81 82C176.418 82 182.322 76.1787 186.625 69.0527L228.853 0.90332H200.034V0.90332Z" fill="#0074FF"/>
</g>
<defs>
<clipPath id="clip0_233_511">
<rect width="299" height="82" fill="white"/>
</clipPath>
</defs>
</svg>
